<?xml version="1.0" encoding="UTF-8" standalone="no"?>
<!-- Created with Inkscape (http://www.inkscape.org/) -->

<svg
   version="1.1"
   id="svg1"
   width="437"
   height="203"
   viewBox="0 0 437 203"
   xmlns="http://www.w3.org/2000/svg"
   xmlns:svg="http://www.w3.org/2000/svg">
  <defs
     id="defs1" />
  <g
     id="g1">
    <path
       id="path1"
       style="opacity:1;fill:#ffffff;fill-opacity:1;stroke:none;stroke-width:1.09055;stroke-linecap:round"
       d="m 71.73633,36.00586 c -7.770069,0.0335 -14.351564,0.79492 -14.351564,0.79492 l 0.05273,-0.002 c -31.740052,2.6034 -55.950972,29.214 -56.029297,61.06055 2.14e-4,33.84673 27.438423,61.28494 61.285156,61.28515 7.622545,-0.044 15.163075,-1.52247 22.244145,-4.33203 V 163 c 0,4.45581 -3.04492,7.65625 -3.04492,7.65625 0,0 -1.74547,3.78196 -15.017584,5.28125 -13.057207,1.47501 -29.666016,-9.73828 -29.666016,-9.73828 l -13.205078,25.03906 c 9.985055,6.94181 25.461049,11.01186 41.871094,11.01172 8.761894,2e-5 17.017054,-1.14556 24.289064,-3.16016 0.0432,-0.0208 0.0427,-0.0246 0.0742,-0.041 0.13097,-0.0336 0.10466,-0.0183 0.30664,-0.0742 0.86599,-0.23969 6.68285,-2.26484 7.47852,-2.55469 1.59237,-0.65344 3.11171,-1.35537 4.55273,-2.09961 13.01575,-7.44956 13.79883,-21.88867 13.79883,-21.88867 v -6.4375 c -0.006,-0.011 -0.0133,-0.0222 -0.0195,-0.0332 l 0.0195,0.008 v -73.15234 -0.004 l -45.1367,-0.0626 v 24.57031 h 14.84766 v 12.02149 c 0,0 -14.41329,4.8732 -24.541018,3.14062 C 46.531366,128.29116 35.513473,114.52259 35.513672,98.17191 35.513428,78.49452 51.465194,62.54276 71.14258,62.543 82.37252,62.548 92.943,67.84668 99.66602,76.84183 l 14.5664,-12.0293 2.63672,-2.00586 V 37.90628 c 0,0 -16.08291,3.6103 -27.38281,0.0469 -4.94372,-1.559 -11.70662,-1.97334 -17.75,-1.94726 z" />
    <path
       id="path5"
       style="opacity:1;fill:#ffffff;fill-opacity:1;stroke:none;stroke-width:1.02273;stroke-linecap:round"
       d="m 170.24029,69.25 a 44.490288,45 0 0 0 -44.49029,45 44.490288,45 0 0 0 44.49029,45 44.490288,45 0 0 0 38.55825,-22.76758 l -18.45073,-8.54297 a 20.700342,20.1875 0 0 1 -17.9448,10.31055 20.700342,20.1875 0 0 1 -18.9412,-12.0918 l 38.30915,-15.17187 0.008,-0.01 21.25647,-8.98828 A 44.490288,45 0 0 0 170.24029,69.25 Z m -0.15448,20.03711 a 19.238986,20.631951 0 0 1 14.41106,6.9707 l -33.54729,12.12891 a 19.238986,20.631951 0 0 1 19.13623,-19.09961 z" />
    <path
       id="path7"
       style="opacity:1;fill:#ffffff;fill-opacity:1;stroke:none;stroke-width:1.02273;stroke-linecap:round"
       d="m 392.24029,69.25 a 44.490288,45 0 0 0 -44.49029,45 44.490288,45 0 0 0 44.49029,45 44.490288,45 0 0 0 38.55825,-22.76758 l -18.45073,-8.54297 a 20.700342,20.1875 0 0 1 -17.9448,10.31055 20.700342,20.1875 0 0 1 -18.9412,-12.0918 l 38.30915,-15.17187 0.008,-0.01 21.25647,-8.98828 A 44.490288,45 0 0 0 392.24029,69.25 Z m -0.15448,20.03711 a 19.238986,20.631951 0 0 1 14.41106,6.9707 l -33.54729,12.12891 a 19.238986,20.631951 0 0 1 19.13623,-19.09961 z" />
    <path
       id="rect10"
       style="opacity:1;fill:#ffffff;fill-opacity:1;stroke:none;stroke-width:0.222834;stroke-linecap:round;stroke-dasharray:none"
       d="m 265.98633,68.99414 c -3.56414,-5e-5 -6.96577,0.431 -10.08985,1.20703 h -8.02539 l -0.10742,0.0527 v -0.0449 h -25.60351 v 87.5625 h 25.60351 V 99.9121 l 0.01,0.0137 0.0996,-0.83984 c 0.001,7.6e-4 0.003,9.5e-4 0.004,0.002 1.27097,-4.62958 6.03166,-7.90054 11.51563,-7.91211 6.55399,1.9e-4 11.88656,4.61107 11.88672,10.29883 -0.002,0.37765 0.007,0.51737 0.0156,1.07617 l 0.002,0.31836 h -0.006 v 54.92383 h 26.42382 v -54.92383 h -0.0566 l 0.0566,-0.0957 c 0,0 0.29255,-12.10502 -3.73829,-19.39452 -3.22207,-5.82689 -5.79256,-7.16213 -5.94726,-7.38282 -4.9937,-4.24045 -12.99333,-7.00168 -22.04297,-7.00195 z" />
    <rect
       style="opacity:1;fill:#ffffff;fill-opacity:1;stroke:none;stroke-width:0.204819;stroke-linecap:round;stroke-dasharray:none"
       id="rect12"
       width="26.350037"
       height="87.182678"
       x="310.95554"
       y="70.611794" />
    <g
       id="path10-3"
       style="fill:#ffffff;fill-opacity:1;stroke:none;stroke-opacity:1"
       transform="translate(-12.52539,-152.55078)">
      <path
         style="color:#000000;fill:#ffffff;fill-opacity:1;stroke:none;stroke-linecap:round;stroke-opacity:1;-inkscape-stroke:none"
         d="m 276.8624,164.89844 c -15.81722,1.3e-4 -28.63933,7.92268 -28.63868,17.69531 0.0197,0.328 0.0543,0.6556 0.10352,0.98242 3.3098,-5.9105 12.43975,-9.8904 22.7207,-9.90429 4.08676,9.6e-4 8.10574,0.63416 11.67774,1.83984 1.87192,0.43488 6.33725,2.1855 14.61523,9.17578 1.96338,1.65796 3.66825,2.98936 5.18164,4.0957 0.006,0.0129 0.0117,0.0242 0.0176,0.0371 0,0 11.27786,8.54485 20.55859,9.25196 9.28073,0.70706 25.18555,0.31445 25.18555,0.31445 0,0 3.38622,-0.61172 7.17578,-2.33399 3.58614,-1.62974 7.35586,-4.3711 9.08789,-7.54296 3.66812,-6.71752 8.66216,-15.55511 13.16992,-16.17383 0.19183,-0.0263 0.30575,-0.0592 0.4668,-0.0879 l 1.56445,-0.20899 c 0.16844,-0.005 -0.23747,-0.49547 -0.54492,-0.71875 -0.33834,-0.24572 -0.83499,-0.24485 -0.98828,-0.26367 l -0.34961,0.01 c -1.12335,0.16872 -2.67006,0.86279 -2.6289,0.80468 -4.73628,1.80507 -14.29181,4.86528 -25.09766,4.92774 -15.29113,0.0884 -30.84653,0.0878 -41.80664,-3.35938 -1.73962,-0.54714 -4.28951,-1.26313 -6.86328,-2.1289 -2.85357,-0.95987 -5.31103,-1.95026 -6.92578,-2.63282 -5.04287,-2.44727 -11.26918,-3.77809 -17.68164,-3.77929 z"
         id="path35-2" />
      <path
         style="color:#000000;fill:#ffffff;fill-opacity:1;stroke:none;stroke-linecap:round;stroke-opacity:1;-inkscape-stroke:none"
         d="m 276.86328,164.70117 c -7.94157,7e-5 -15.13467,1.98706 -20.35547,5.21289 -5.2208,3.22584 -8.48275,7.70702 -8.48242,12.67969 v 0.006 l 0.002,0.006 c 0.0201,0.33396 0.0554,0.66744 0.10547,1 l 0.0859,0.57031 0.28125,-0.50391 c 3.25263,-5.80839 12.31869,-9.78891 22.54883,-9.80273 4.06639,9.6e-4 8.06396,0.63205 11.61328,1.83008 l 0.01,0.002 0.01,0.002 c 1.82556,0.42412 6.26761,2.1566 14.53125,9.13477 1.95094,1.64746 3.64413,2.96835 5.15234,4.07227 l 0.0156,0.0371 0.041,0.0312 c 0,0 2.82844,2.14351 6.82032,4.375 3.99187,2.23148 9.1474,4.55834 13.84179,4.91601 9.30328,0.70878 25.20508,0.31445 25.20508,0.31445 h 0.0156 l 0.0156,-0.004 c 0,0 3.40685,-0.61434 7.22071,-2.34766 3.61461,-1.64268 7.41283,-4.39328 9.17968,-7.6289 1.83345,-3.35765 3.99799,-7.23983 6.25782,-10.35157 2.25982,-3.11173 4.62749,-5.42723 6.76562,-5.7207 0.20336,-0.0279 0.32339,-0.0609 0.47461,-0.0879 l 1.53711,-0.20703 c 0.035,-0.001 0.0781,-0.009 0.12305,-0.0371 0.045,-0.0284 0.0817,-0.0796 0.0957,-0.125 0.028,-0.0909 0.005,-0.14482 -0.0117,-0.18945 -0.0341,-0.0893 -0.0866,-0.16248 -0.15234,-0.2461 -0.13151,-0.16724 -0.31432,-0.35076 -0.49024,-0.47851 -0.20643,-0.14992 -0.44248,-0.2162 -0.64453,-0.25196 -0.20205,-0.0358 -0.38487,-0.0406 -0.43555,-0.0469 l -0.0156,-0.002 -0.375,0.01 -0.0117,0.002 c -0.58784,0.0883 -1.26209,0.3089 -1.78906,0.49805 -0.11852,0.0425 -0.19056,0.0697 -0.29102,0.10742 l 0.0156,-0.0215 -0.60547,0.23242 c -4.72309,1.80004 -14.26006,4.85181 -25.0293,4.91406 -15.29033,0.0884 -30.837,0.0815 -41.74609,-3.34961 -1.74527,-0.54891 -4.29178,-1.26521 -6.85938,-2.1289 -2.84308,-0.95635 -5.29058,-1.94189 -6.90234,-2.62305 l -0.01,-0.004 c -5.02478,-2.43644 -11.20752,-3.74895 -17.57812,-3.77539 l -0.002,-0.0195 -0.0156,0.0176 c -0.004,-2e-5 -0.008,-0.002 -0.0117,-0.002 l 0.0274,-0.0156 z m 0.0684,0.0625 0.0293,0.0274 -0.19727,0.21484 -0.0976,-0.0879 z m -0.0684,0.33203 c 6.38516,0.001 12.58302,1.3281 17.59375,3.75977 l 0.006,0.002 0.004,0.002 c 1.61783,0.68387 4.07945,1.67664 6.93945,2.63868 2.57994,0.86784 5.13322,1.58549 6.86719,2.13086 11.0111,3.46321 26.57529,3.45559 41.86718,3.36718 10.81691,-0.0625 20.35821,-3.11406 25.11915,-4.92578 0.004,-3.3e-4 0.005,-0.002 0.008,-0.002 0.007,-9.6e-4 0.0145,-9.1e-4 0.0195,-0.002 0.0285,-0.006 0.0451,-0.0116 0.0684,-0.0195 0.0465,-0.0158 0.10867,-0.0384 0.1875,-0.0684 0.15766,-0.0599 0.38021,-0.14552 0.63867,-0.23829 0.51514,-0.18489 1.17447,-0.3955 1.70898,-0.47656 l 0.32032,-0.01 c 0.10134,0.0112 0.23332,0.0144 0.39453,0.043 0.16918,0.0299 0.35051,0.0878 0.48242,0.1836 0.12869,0.0935 0.29562,0.26084 0.40234,0.39453 l -1.33593,0.17773 h -0.004 c -0.17088,0.0305 -0.27869,0.0632 -0.45898,0.0879 -2.36963,0.32525 -4.75205,2.7378 -7.03321,5.87891 -2.28116,3.14112 -4.44853,7.03661 -6.2832,10.39649 -1.69721,3.10808 -5.43844,5.84023 -8.99609,7.45703 -3.75156,1.705 -7.08894,2.31199 -7.11329,2.3164 -0.0238,5.9e-4 -15.90112,0.39036 -25.15234,-0.31445 -4.58632,-0.34944 -9.7105,-2.64948 -13.67773,-4.86719 -3.94774,-2.20681 -6.71476,-4.30346 -6.74219,-4.32422 l -0.0137,-0.0293 -0.041,-0.0312 c -1.50949,-1.1035 -3.20978,-2.43072 -5.16992,-4.08594 -8.2923,-7.00237 -12.78095,-8.77115 -14.69922,-9.2168 -3.59006,-1.2093 -7.62058,-1.84474 -11.7207,-1.8457 h -0.002 c -10.06607,0.0136 -19.00879,3.80766 -22.57812,9.5625 -0.0152,-0.14779 -0.0378,-0.29541 -0.0469,-0.44336 -3.1e-4,-4.79995 3.14859,-9.16513 8.29297,-12.34375 5.14439,-3.17862 12.27281,-5.15423 20.14844,-5.1543 z"
         id="path36-3" />
    </g>
    <g
       id="path14-7"
       style="fill:#ffffff;fill-opacity:1;stroke:none;stroke-opacity:1"
       transform="translate(-12.52539,-152.55078)">
      <path
         style="color:#000000;fill:#ffffff;fill-opacity:1;stroke:none;stroke-linecap:round;stroke-opacity:1;-inkscape-stroke:none"
         d="m 382.18076,162.95703 c -0.18135,0.002 -0.36285,0.0126 -0.54297,0.0312 -0.3205,0.0238 -2.07763,0.25481 -5.73243,2.51953 -4.06584,2.51907 -11.88867,7.24805 -11.88867,7.24805 l 8.98438,-2.58984 c -0.006,0.004 -0.0165,0.008 -0.0176,0.0117 l 0.58203,-0.16015 c -0.0813,0.0216 -0.18511,0.0454 -0.28711,0.0684 l 0.41406,-0.11914 c -0.004,0.0134 -0.0461,0.0282 -0.10547,0.0449 l 2.69922,-0.73828 c 0.0129,-0.007 0.34865,-0.0945 0.48633,-0.13282 l 1.68164,-0.26171 2.41211,-0.0898 c -0.23525,-0.0103 -0.50509,-0.0258 -0.84961,-0.0566 0.38906,-6e-5 0.76708,0.009 1.13672,0.0274 -0.16958,-0.45069 1.28116,-0.0514 0.45117,0.0293 1.26654,0.0994 2.3816,0.35809 3.20508,0.97266 1.09025,0.81366 1.66773,2.2801 1.66797,3.66016 -5e-4,2.8407 -2.37773,5.07287 -6.10937,5.07226 -0.67376,-0.003 -1.42693,-0.30567 -2.06837,-0.45898 l -0.33789,-0.0703 c 0,0 -5.01562,-0.96484 -6.14062,2.87891 -1.125,3.84375 0.75,5.78125 1.3125,6.1875 0.5625,0.40625 0.9375,0.5625 0.9375,0.5625 0,0 2.6875,0.8125 3.875,-3.15625 1.18752,-3.96888 4.54689,-3.45325 4.54689,-3.45325 l 1.17774,-0.13868 c 0.31669,0.0308 -1.41242,0.14665 -1.0918,0.14845 5.34382,9e-5 10.18368,-4.11849 10.1836,-9.03516 7e-5,-4.91666 -4.32026,-9.00009 -9.66407,-9 -0.29553,0.004 -0.60532,-0.006 -0.91796,-0.002 z m -0.57618,5.83203 c -0.14836,-0.0116 -0.29878,-0.0218 -0.45117,-0.0293 0.003,0.007 3.7e-4,0.0119 0.004,0.0195 l -0.29102,0.01 c 0.34019,0.0149 0.58339,0.0151 0.73828,0 z"
         id="path37-5" />
      <path
         style="color:#000000;fill:#ffffff;fill-opacity:1;stroke:none;stroke-linecap:round;stroke-opacity:1;-inkscape-stroke:none"
         d="m 382.17773,162.78125 -0.17187,0.004 v 0.006 c -0.12687,0.005 -0.25491,0.0105 -0.38086,0.0234 -0.35679,0.0265 -2.14089,0.26979 -5.8125,2.54492 -4.06376,2.51779 -11.88672,7.2461 -11.88672,7.2461 l 0.13867,0.31836 8.66211,-2.49805 v 0.004 l 0.83985,-0.23242 c 0.0139,-0.004 0.0318,-0.006 0.0449,-0.01 v -0.002 l -0.004,-0.0117 v -0.002 l 0.0215,-0.006 0.004,0.0137 h 0.002 l 0.0117,-0.004 2.70118,-0.73828 h 0.004 l 0.002,-0.002 h 0.004 c 0.009,-0.003 0.0214,-0.007 0.0371,-0.0117 0.0345,-0.01 0.0816,-0.0214 0.13281,-0.0352 0.095,-0.0254 0.19954,-0.0544 0.27149,-0.0742 l 1.67187,-0.26172 2.38867,-0.0879 c 0.006,2.7e-4 0.008,-2.6e-4 0.0137,0 h 0.002 c 0.31975,0.0136 0.54895,0.0126 0.7168,-0.002 1.25091,0.0982 2.33162,0.3561 3.11328,0.93945 1.03321,0.7711 1.59742,2.18827 1.59765,3.51953 -4.8e-4,2.74309 -2.27175,4.89709 -5.93359,4.89649 -0.62193,-0.003 -1.36733,-0.29491 -2.0293,-0.45313 h -0.002 l -0.3418,-0.0723 h -0.002 c 0,0 -1.27986,-0.24748 -2.71094,-0.002 -1.43108,0.24553 -3.0456,1.01095 -3.6289,3.0039 -0.57209,1.95464 -0.38489,3.4453 0.0273,4.4961 0.41224,1.05079 1.03613,1.65641 1.34961,1.88281 0.57516,0.41539 0.97266,0.58203 0.97266,0.58203 l 0.008,0.004 0.01,0.002 c 0,0 0.72862,0.21801 1.60157,-0.0937 0.87294,-0.31177 1.88515,-1.15744 2.49023,-3.17969 0.58017,-1.93903 1.66788,-2.75029 2.61328,-3.10156 0.94541,-0.35127 1.74024,-0.22852 1.74024,-0.22852 l 0.0234,0.002 c 4.1e-4,1.1e-4 0.001,-1.5e-4 0.002,0 0.005,0.001 0.0136,0.003 0.0176,0.004 0.0431,0.008 0.0455,0.006 0.0684,0.006 h 0.002 c 0.0455,0 0.0854,-0.0248 0.13086,-0.0254 0.11017,-0.0111 0.26551,-0.0237 0.42968,-0.0391 0.1769,-0.0166 0.35361,-0.0347 0.47266,-0.0508 0.0595,-0.008 0.087,-0.006 0.15039,-0.0293 0.008,-0.003 0.0176,-0.008 0.0312,-0.0156 0.007,-0.004 0.023,-0.0153 0.0234,-0.0156 4.4e-4,-3.6e-4 0.0349,-0.0387 0.0352,-0.0391 7e-5,-1.1e-4 0.006,-0.0146 0.01,-0.0254 4.88402,-0.60879 9.0743,-4.35199 9.07422,-8.97071 7e-5,-5.01917 -4.40493,-9.17587 -9.83789,-9.17578 h -0.002 -0.002 c -0.28931,0.004 -0.59887,-0.006 -0.91601,-0.002 -6.8e-4,1e-5 -10e-4,-1e-5 -0.002,0 z m 0.15821,0.34961 h 0.0195 v 0.002 c 0.24955,2.5e-4 0.5,0.005 0.74414,0.002 5.25465,-9e-5 9.48835,4.01008 9.48828,8.82421 8e-5,4.70938 -4.58444,8.65273 -9.7168,8.80469 l -0.39843,0.0469 h 0.0469 c 0,0 -0.88486,-0.13509 -1.91601,0.24804 -1.03116,0.38314 -2.21688,1.29828 -2.82422,3.32813 -0.58242,1.9465 -1.50771,2.67895 -2.27539,2.95312 -0.76336,0.27263 -1.36813,0.088 -1.375,0.0859 -0.008,-0.003 -0.34869,-0.1443 -0.89258,-0.53711 -0.24902,-0.17985 -0.84388,-0.74611 -1.22852,-1.72656 -0.38464,-0.98045 -0.57049,-2.38042 -0.0176,-4.26953 0.5417,-1.8508 1.99554,-2.52483 3.35352,-2.75781 1.35593,-0.23264 2.57833,0.001 2.58203,0.002 l 0.33789,0.0703 c 0.62025,0.14875 1.37935,0.45967 2.10352,0.46289 h 0.002 c 3.80144,6.2e-4 6.28269,-2.30973 6.2832,-5.24805 -2.4e-4,-1.42885 -0.59099,-2.94455 -1.73828,-3.80078 -0.77012,-0.57474 -1.78507,-0.81617 -2.89844,-0.93945 -10e-4,-0.0209 0.0145,-0.0418 0.008,-0.0586 -0.0445,-0.11153 -0.11008,-0.12917 -0.16797,-0.15625 -0.0346,-0.0162 -0.0746,-0.0255 -0.11328,-0.0371 -0.0261,-0.008 -0.0484,-0.0191 -0.0762,-0.0254 -0.13824,-0.0311 -0.29201,-0.0484 -0.43946,-0.0117 -0.0737,0.0183 -0.15583,0.0529 -0.21289,0.13672 -0.01,0.014 0.003,0.0333 -0.004,0.0488 l -0.12696,-0.008 0.004,0.008 c -0.28615,-0.0107 -0.57163,-0.0215 -0.86914,-0.0215 l -0.004,0.0879 -1.57617,0.0606 -1.70117,0.26367 -0.01,0.004 c -0.0666,0.0185 -0.18603,0.0486 -0.28906,0.0762 -0.0515,0.0138 -0.10034,0.0271 -0.13672,0.0371 -0.0182,0.005 -0.0325,0.01 -0.0449,0.0137 -0.006,0.002 -0.0118,0.004 -0.0176,0.006 -0.003,9.4e-4 -0.005,3.7e-4 -0.01,0.002 -0.001,3.9e-4 -0.003,0.003 -0.006,0.004 l -2.27735,0.62304 0.006,-0.0234 -0.71094,0.20508 -0.01,0.002 0.002,0.01 -0.27539,0.0762 -0.004,-0.006 -7.73046,2.22851 c 1.2373,-0.74845 7.08896,-4.28631 10.77539,-6.57031 3.63797,-2.2543 5.36813,-2.47304 5.65234,-2.49414 h 0.002 0.004 c 0.17493,-0.0181 0.35152,-0.0274 0.52734,-0.0293 0.051,-6.5e-4 0.10126,2e-5 0.15235,0 z m -8.78907,6.74023 0.0254,0.0937 -0.0274,-0.0293 -0.01,-0.041 c 0.004,-0.009 0.005,-0.0145 0.008,-0.0195 0.001,-0.002 0.003,-0.002 0.004,-0.004 z m -0.57031,0.17969 0.17383,0.17774 c 1.4e-4,-4.7e-4 -0.0336,0.063 -0.0332,0.0625 3.7e-4,-4.3e-4 -0.0144,0.0134 -0.0215,0.0195 z"
         id="path38-1" />
    </g>
    <g
       id="path21-3"
       style="fill:#ffffff;fill-opacity:1;stroke:none;stroke-opacity:1"
       transform="translate(-12.52539,-152.55078)">
      <path
         style="color:#000000;fill:#ffffff;fill-opacity:1;stroke:none;stroke-linecap:round;stroke-opacity:1;-inkscape-stroke:none"
         d="m 337.32129,166.43704 c -8.02781,7.8e-4 -16.20163,2.85895 -20.24363,6.14043 4.23215,1.18914 19.4951,4.20167 40.72173,0.58035 -3.71462,-3.75057 -11.72344,-6.72076 -20.4781,-6.72078 z"
         id="path39-3" />
      <path
         style="color:#000000;fill:#ffffff;fill-opacity:1;stroke:none;stroke-linecap:round;stroke-opacity:1;-inkscape-stroke:none"
         d="m 337.32031,166.22656 c -8.07774,7.9e-4 -16.27164,2.85621 -20.375,6.1875 l -0.3164,0.25586 0.39257,0.10938 c 4.2699,1.19974 19.55033,4.21332 40.8125,0.58593 l 0.40039,-0.0684 -0.28515,-0.2871 c -3.78196,-3.81856 -11.8247,-6.78319 -20.62695,-6.78321 z m 0.002,0.42188 c 8.45617,2e-5 16.14432,2.82429 19.92578,6.35937 -20.39615,3.38509 -35.05467,0.69291 -39.6211,-0.52734 4.09331,-3.11869 11.94163,-5.83128 19.69532,-5.83203 z"
         id="path40-1" />
    </g>
    <g
       id="path22-3"
       style="fill:#ffffff;fill-opacity:1;stroke:none;stroke-opacity:1"
       transform="translate(-12.52539,-152.55078)">
      <path
         style="color:#000000;fill:#ffffff;fill-opacity:1;stroke:none;stroke-linecap:round;stroke-opacity:1;-inkscape-stroke:none"
         d="m 336.48349,154.69531 c -1.96802,6.3e-4 -3.56295,1.59644 -3.5625,3.56446 6.8e-4,1.2045 0.60976,2.32714 1.61914,2.98437 0.33857,0.35946 0.82363,0.95705 0.55273,1.21289 -0.39775,0.37565 -1.43812,0.0897 -2.54296,0.37695 -1.10486,0.28727 -2.09888,2.47443 -2.09888,2.47443 0,0 1.68363,-0.72011 6.49641,-0.69672 4.94705,0.024 6.27691,0.7629 6.27691,0.7629 0,0 -0.31059,-2.43022 -2.23304,-2.607 -1.80155,-0.16566 -3.99045,0.25034 -2.47656,-1.58789 6.2e-4,-7.5e-4 10e-4,-0.001 0.002,-0.002 0.95648,-0.66407 1.5282,-1.75355 1.53125,-2.91796 4.5e-4,-1.96878 -1.59567,-3.56491 -3.56445,-3.56446 z"
         id="path41-1" />
      <path
         style="color:#000000;fill:#ffffff;fill-opacity:1;stroke:none;stroke-linecap:round;stroke-opacity:1;-inkscape-stroke:none"
         d="m 336.44336,154.55078 -0.0195,0.0117 c -2.01631,0.0349 -3.64695,1.67285 -3.64649,3.69727 7.1e-4,1.25299 0.63358,2.42178 1.6836,3.10546 l -0.0254,-0.0215 c 0.16551,0.17572 0.36557,0.40992 0.48437,0.61719 0.0594,0.10363 0.0967,0.20022 0.10547,0.26758 0.009,0.0674 5.4e-4,0.093 -0.0312,0.12304 -0.14005,0.13227 -0.46704,0.17229 -0.91211,0.1836 -0.44507,0.0113 -0.99402,0.0108 -1.56836,0.16015 -0.62838,0.16339 -1.15303,0.81071 -1.54687,1.4043 -0.39384,0.59359 -0.64649,1.14844 -0.64649,1.14844 l -0.15429,0.33789 0.34179,-0.14453 c 0,0 0.39923,-0.17222 1.41211,-0.34766 1.01289,-0.17544 2.62822,-0.34955 5.02735,-0.33789 2.46641,0.012 4.0273,0.20123 4.96679,0.38672 0.9395,0.18548 1.24024,0.35742 1.24024,0.35742 l 0.24804,0.13867 -0.0351,-0.2832 c 0,0 -0.0797,-0.6287 -0.41016,-1.2832 -0.3305,-0.6545 -0.93269,-1.35344 -1.95312,-1.44727 -0.91702,-0.0843 -1.92284,-0.0294 -2.45899,-0.16406 -0.13404,-0.0337 -0.23527,-0.078 -0.29687,-0.12696 -0.0616,-0.0489 -0.0889,-0.0946 -0.0957,-0.16796 -0.0135,-0.1468 0.10332,-0.44607 0.47266,-0.89454 -0.008,0.009 -0.0113,0.0132 -0.006,0.008 l -0.0195,0.0176 c 0.995,-0.69081 1.58862,-1.8258 1.5918,-3.0371 4.6e-4,-2.04662 -1.66041,-3.70946 -3.70704,-3.70899 z m 0.041,0.28906 c 1.89094,-4.3e-4 3.42036,1.52899 3.41993,3.41993 -0.003,1.11751 -0.5508,2.1615 -1.46875,2.79882 l -0.0117,0.008 -0.01,0.01 c 0.003,-0.003 -7.5e-4,8.1e-4 -0.01,0.0117 -0.38761,0.47064 -0.56452,0.80809 -0.53711,1.10547 0.0137,0.14869 0.0908,0.27756 0.20117,0.36523 0.1104,0.0877 0.2487,0.14207 0.40625,0.18164 0.63021,0.1583 1.61937,0.0886 2.50391,0.16993 0.90201,0.0829 1.41725,0.68816 1.72265,1.29296 0.2468,0.48875 0.28048,0.79614 0.3086,0.96094 -0.13124,-0.0594 -0.28588,-0.15364 -1.04102,-0.30273 -0.9622,-0.18997 -2.54086,-0.3825 -5.02148,-0.39453 -2.41365,-0.0117 -4.046,0.16302 -5.07813,0.34179 -0.79147,0.13709 -0.96626,0.22229 -1.13086,0.28125 0.0866,-0.17801 0.18421,-0.40317 0.46875,-0.83203 0.37939,-0.5718 0.90243,-1.16127 1.37891,-1.28515 0.5305,-0.13793 1.05314,-0.13895 1.5039,-0.15039 0.45077,-0.0114 0.84387,-0.0164 1.10157,-0.25977 0.10366,-0.0979 0.13573,-0.24322 0.11914,-0.37109 -0.0166,-0.12788 -0.0703,-0.25037 -0.14063,-0.37305 -0.14064,-0.24536 -0.35233,-0.49009 -0.52539,-0.67383 l -0.0117,-0.0117 -0.0137,-0.01 c -0.96874,-0.63077 -1.55403,-1.70728 -1.55469,-2.86328 -4.3e-4,-1.89021 1.52972,-3.41932 3.41992,-3.41993 z"
         id="path42-9" />
    </g>
    <g
       id="path23-9"
       style="fill:#ffffff;fill-opacity:1;stroke:none;stroke-opacity:1"
       transform="translate(-12.52539,-152.55078)">
      <path
         style="color:#000000;fill:#ffffff;fill-opacity:1;stroke:none;stroke-linecap:round;stroke-opacity:1;-inkscape-stroke:none"
         d="m 344.80473,202.38724 a 7.7019792,1.3159207 0 0 1 -7.70198,1.31592 7.7019792,1.3159207 0 0 1 -7.70198,-1.31592 7.7019792,1.3159207 0 0 1 7.70198,-1.31592 7.7019792,1.3159207 0 0 1 7.70198,1.31592 z"
         id="path43-6" />
      <path
         style="color:#000000;fill:#ffffff;fill-opacity:1;stroke:none;stroke-linecap:round;stroke-opacity:1;-inkscape-stroke:none"
         d="m 337.10352,200.8457 c -2.13729,0 -4.07177,0.14732 -5.48438,0.38867 -0.7063,0.12068 -1.28099,0.26349 -1.69727,0.43165 -0.20813,0.0841 -0.37811,0.17327 -0.50976,0.2832 -0.13165,0.10992 -0.23828,0.25722 -0.23828,0.4375 0,0.18028 0.10663,0.32953 0.23828,0.43945 0.13165,0.10993 0.30163,0.19913 0.50976,0.2832 0.41628,0.16816 0.99097,0.31097 1.69727,0.43165 1.41261,0.24135 3.34709,0.38867 5.48438,0.38867 2.13728,0 4.07176,-0.14732 5.48437,-0.38867 0.70631,-0.12068 1.28099,-0.26349 1.69727,-0.43165 0.20813,-0.0841 0.37615,-0.17327 0.50781,-0.2832 0.13165,-0.10992 0.23828,-0.25917 0.23828,-0.43945 0,-0.18028 -0.10663,-0.32758 -0.23828,-0.4375 -0.13166,-0.10993 -0.29968,-0.19913 -0.50781,-0.2832 -0.41628,-0.16816 -0.99096,-0.31097 -1.69727,-0.43165 -1.41261,-0.24135 -3.34709,-0.38867 -5.48437,-0.38867 z m 0,0.45117 c 2.11639,0 4.03324,0.1479 5.4082,0.38282 0.68748,0.11746 1.24031,0.25758 1.60351,0.40429 0.18161,0.0734 0.31514,0.14954 0.38868,0.21094 0.0735,0.0614 0.0742,0.0904 0.0742,0.0918 0,0.001 -6.7e-4,0.0304 -0.0742,0.0918 -0.0735,0.0614 -0.20707,0.13758 -0.38868,0.21093 -0.3632,0.14672 -0.91603,0.28879 -1.60351,0.40625 -1.37496,0.23492 -3.29181,0.38086 -5.4082,0.38086 -2.1164,0 -4.03325,-0.14594 -5.40821,-0.38086 -0.68748,-0.11746 -1.24226,-0.25953 -1.60547,-0.40625 -0.1816,-0.0734 -0.31317,-0.14953 -0.38672,-0.21093 -0.0735,-0.0614 -0.0762,-0.0904 -0.0762,-0.0918 0,-0.001 0.003,-0.0304 0.0762,-0.0918 0.0736,-0.0614 0.20512,-0.13758 0.38672,-0.21094 0.36321,-0.14671 0.91799,-0.28683 1.60547,-0.40429 1.37496,-0.23492 3.29181,-0.38281 5.40821,-0.38282 z"
         id="path44-0" />
    </g>
    <g
       id="path24-8"
       style="fill:#ffffff;fill-opacity:1;stroke:none;stroke-opacity:1"
       transform="translate(-12.52539,-152.55078)">
      <path
         style="color:#000000;fill:#ffffff;fill-opacity:1;stroke:none;stroke-linecap:round;stroke-opacity:1;-inkscape-stroke:none"
         d="m 327.85263,205.84375 h 18.5625 c 0,0 0.28125,0.90625 2.46875,1.96875 2.1875,1.0625 2.6875,1 2.6875,1 0,0 1.56028,0.2721 1.5625,2.0625 0.002,1.82565 -2,2.25 -2,2.25 l -28.94378,-0.0442 c 0,0 -1.87305,-0.57193 -1.57257,-2.73706 0.21327,-1.5368 1.5404,-1.78347 1.5404,-1.78347 0,0 1.9447,0.096 5.6947,-2.71653 z"
         id="path45-6" />
      <path
         style="color:#000000;fill:#ffffff;fill-opacity:1;stroke:none;stroke-linecap:round;stroke-opacity:1;-inkscape-stroke:none"
         d="m 328.00195,205.54297 -0.24023,0.18164 c -1.86439,1.3983 -3.27292,2.06886 -4.21094,2.39062 -0.93802,0.32177 -1.38476,0.29493 -1.38476,0.29493 h -0.0176 l -0.0176,0.002 c 0,0 -0.36529,0.0694 -0.75,0.3418 -0.38472,0.27236 -0.7998,0.75908 -0.91211,1.56836 -0.15632,1.12638 0.26133,1.87126 0.71875,2.31054 0.45742,0.43929 0.95898,0.5918 0.95898,0.5918 l 0.0215,0.006 28.98242,0.0449 0.0137,-0.004 c 0,0 0.5282,-0.11106 1.05469,-0.46289 0.52649,-0.35182 1.06551,-0.96592 1.06445,-1.93359 -0.001,-0.93876 -0.42202,-1.50844 -0.84179,-1.82227 -0.41978,-0.31382 -0.84375,-0.38867 -0.84375,-0.38867 l -0.0234,-0.004 -0.0215,0.004 c 0,0 -0.003,0.002 -0.0742,-0.008 -0.0714,-0.009 -0.19526,-0.033 -0.38868,-0.0898 -0.38682,-0.11378 -1.05195,-0.35989 -2.14062,-0.88868 -1.08095,-0.52503 -1.68268,-1.00756 -2.01172,-1.35156 -0.16452,-0.172 -0.25993,-0.30893 -0.31445,-0.40039 -0.0545,-0.0915 -0.0645,-0.12695 -0.0645,-0.12695 l -0.0332,-0.10547 h -18.62305 z m -0.11914,0.17969 0.11914,0.12109 -0.14843,0.0742 -0.0762,-0.0371 z m 0.006,0.27148 h 18.43555 c 0.0148,0.0326 0.0116,0.0346 0.041,0.084 0.0666,0.11167 0.17625,0.26771 0.35547,0.45508 0.35846,0.37475 0.99111,0.8766 2.09766,1.41407 1.09883,0.53371 1.77745,0.7876 2.1875,0.9082 0.20502,0.0603 0.34287,0.0876 0.43359,0.0996 0.0907,0.012 0.15039,0.006 0.15039,0.006 h -0.0449 c 0,0 0.35588,0.0622 0.7168,0.33203 0.36092,0.26982 0.7216,0.73039 0.72265,1.58203 9.4e-4,0.85798 -0.45958,1.36879 -0.93359,1.68555 -0.4692,0.31354 -0.92801,0.41201 -0.9375,0.41406 l -28.88867,-0.043 c -0.01,-0.003 -0.43075,-0.13213 -0.83008,-0.51562 -0.40398,-0.38797 -0.77306,-1.01204 -0.62891,-2.05079 0.10097,-0.72752 0.4569,-1.13202 0.78907,-1.36718 0.33216,-0.23517 0.63086,-0.29102 0.63086,-0.29102 l -0.0352,0.004 c 0,0 0.52622,0.0209 1.49805,-0.3125 0.95943,-0.32912 2.38997,-1.02637 4.24023,-2.4043 z"
         id="path46-3" />
    </g>
  </g>
</svg>
